PathFileType	4	(X/Y/Z)	CPRIT_Patient3_R_KneeIso_Processed.TRC
DataRate	CameraRate	NumFrames	NumMarkers	Units	OrigDataRate	OrigDataStartFrame	OrigNumFrames
150.195058517555	150.195058517555	4	39	m	150.195058517555	97	       771
Frame#	Time	R.Heel			R.Midfoot.Superior			R.Midfoot.Lateral			R.Toe			L.Heel			L.Midfoot.Superior			L.Midfoot.Lateral			L.Toe			R.Shank.Superior			R.Shank.Inferior			R.Shank.Lateral			R.Shank.Posterior			L.Shank.Superior			L.Shank.Inferior			L.Shank.Posterior			L.Shank.Lateral			R.Patella			L.Patella			R.Thigh.Superior			R.Thigh.Lateral			R.Thigh.Inferior			L.Thigh.Superior			L.Thigh.Inferior			L.Thigh.Lateral			L.ASIS			R.ASIS			Sacral			R.Shoulder			L.Shoulder			C7			J.Notch			Sternum			Thoracic			L.Elbow			L.Wrist			R.Elbow			R.Wrist			R.PSIS			L.PSIS			
		X1	Y1	Z1	X2	Y2	Z2	X3	Y3	Z3	X4	Y4	Z4	X5	Y5	Z5	X6	Y6	Z6	X7	Y7	Z7	X8	Y8	Z8	X9	Y9	Z9	X10	Y10	Z10	X11	Y11	Z11	X12	Y12	Z12	X13	Y13	Z13	X14	Y14	Z14	X15	Y15	Z15	X16	Y16	Z16	X17	Y17	Z17	X18	Y18	Z18	X19	Y19	Z19	X20	Y20	Z20	X21	Y21	Z21	X22	Y22	Z22	X23	Y23	Z23	X24	Y24	Z24	X25	Y25	Z25	X26	Y26	Z26	X27	Y27	Z27	X28	Y28	Z28	X29	Y29	Z29	X30	Y30	Z30	X31	Y31	Z31	X32	Y32	Z32	X33	Y33	Z33	X34	Y34	Z34	X35	Y35	Z35	X36	Y36	Z36	X37	Y37	Z37	X38	Y38	Z38	X39	Y39	Z39	

97	0.639168831169	0.710997830546	0.092775605749	0.071695101712	0.884364546520	0.125869697308	0.086909213681	0.785758537768	0.074068512421	0.128262280291	0.995827393611	0.069927260851	0.096929506837	0.653623415359	0.042657773357	-0.090833911097	0.818255217837	0.096252566852	-0.136338575475	0.721099265628	0.032712506995	-0.161252738501	0.932164904310	0.056870279133	-0.163530701096	0.903942192298	0.386321200626	0.089785466816	0.866298692309	0.270784395640	0.092165931553	0.814012678570	0.341162165046	0.147235440849	0.764137670030	0.410591088804	0.086841700743	0.767505548613	0.364950064906	-0.160620612666	0.762359319716	0.237260088771	-0.144287050968	0.629981827062	0.339598659171	-0.145725286186	0.697720716641	0.276485907998	-0.198718093507	0.952308613514	0.507607469412	0.071952300812	0.792871365960	0.466464969437	-0.158361716786	0.860787429361	0.824056319077	0.086797773451	0.811770106317	0.730755457293	0.136678181732	0.921035043954	0.679126623862	0.060088511150	0.843800062281	0.775588317042	-0.179996576127	0.828767595735	0.611086866893	-0.167260414415	0.745309564941	0.704084965354	-0.233612096623	0.833807288025	0.935811240857	-0.171018171261	0.803954833960	0.955409376961	0.067344535219	0.631296518811	0.991071110996	-0.066113161822	0.762186081032	1.451458657070	0.081579330818	0.778714776641	1.463870376074	-0.231375203772	0.714179568461	1.480239358261	-0.077057123071	0.829849975067	1.375405413518	-0.075180363681	0.879514619521	1.197062655195	-0.073255742533	0.623978956678	1.325942898255	-0.084855198248	0.755349391406	1.186511785175	-0.413309428162	0.903308102160	0.987126269856	-0.451261538560	0.672830882203	1.181634747374	0.256955002916	0.736916862751	0.981687807470	0.383941244787	0.630231937992	0.992932197927	-0.028699852893	0.635107053162	0.990621976643	-0.103888803620	
98	0.645826839827	0.706458402098	0.095221347397	0.071284996165	0.880170757720	0.126094791675	0.086741726794	0.780894285983	0.075564028040	0.127959055997	0.990931603004	0.068788235777	0.096940054512	0.653624116414	0.042654337413	-0.090832588184	0.818265795867	0.096245451617	-0.136335336850	0.721099725775	0.032713089897	-0.161251994397	0.932167237862	0.056873503998	-0.163526495487	0.903085622440	0.386277523781	0.089694335730	0.863970450681	0.271217834091	0.091971136408	0.812507331714	0.342220548999	0.147000707110	0.763497948507	0.412234521329	0.086608604891	0.767529143251	0.364952928702	-0.160622349098	0.762370977733	0.237258896847	-0.144290372525	0.630011307206	0.339612431237	-0.145700455791	0.697729775695	0.276494157549	-0.198705031422	0.952916580050	0.507257469562	0.071998006839	0.792910388679	0.466460990552	-0.158376683779	0.861087488814	0.824132697638	0.086612548549	0.812313549348	0.730791755147	0.136535287365	0.921612960801	0.679290202466	0.059908317366	0.843867831391	0.775588211281	-0.180028555407	0.828829862979	0.611087454153	-0.167281583208	0.745322555301	0.704081536424	-0.233596763628	0.833882327103	0.935820948872	-0.171055905856	0.804147346567	0.955400112851	0.067304072580	0.631416198596	0.991059600048	-0.066029829873	0.762209254889	1.451468691411	0.081606038220	0.778639262698	1.463857794409	-0.231351063224	0.714161142464	1.480220382333	-0.077007929607	0.829864397600	1.375410130805	-0.075150526111	0.879566723197	1.197073669856	-0.073273959095	0.624003941097	1.325901741888	-0.084781219758	0.755288706732	1.186472035852	-0.413246761232	0.903292586105	0.987127149034	-0.451250682182	0.672843210308	1.181646053003	0.256975429861	0.736919308334	0.981687685475	0.383943968232	0.630377961932	0.992920529908	-0.028612747614	0.635213380519	0.990609793653	-0.103805699005	
99	0.652484848485	0.701856751518	0.097774740147	0.070857078463	0.875897263139	0.126379134120	0.086575565171	0.775947917967	0.077153211993	0.127646577385	0.985921646162	0.067686233440	0.096955089192	0.653624511992	0.042650376636	-0.090830363870	0.818272401948	0.096236963952	-0.136334925738	0.721100134390	0.032713673227	-0.161251292660	0.932170221964	0.056876516118	-0.163521663412	0.902197371875	0.386247552393	0.089598857250	0.861594711137	0.271691179971	0.091769154743	0.810972923221	0.343318433591	0.146753455647	0.762851730741	0.413908800422	0.086354102463	0.767552539344	0.364955699138	-0.160629109612	0.762382423753	0.237258124552	-0.144293938366	0.630041911607	0.339626854919	-0.145675116492	0.697739129270	0.276502650435	-0.198692288908	0.953511433392	0.506906482578	0.072030365203	0.792950522964	0.466456763310	-0.158391582038	0.861387776371	0.824207276880	0.086428534740	0.812852951967	0.730826956237	0.136392839773	0.922181650708	0.679450061713	0.059722820560	0.843937489623	0.775587665346	-0.180060369225	0.828892620119	0.611087681355	-0.167303097251	0.745338309550	0.704078679269	-0.233582998842	0.833960252659	0.935829863827	-0.171093049894	0.804342527783	0.955389941110	0.067264397062	0.631539453162	0.991048665687	-0.065946122800	0.762239325027	1.451478835067	0.081631054313	0.778561532616	1.463845053597	-0.231329637973	0.714143408063	1.480201336342	-0.076959726555	0.829882293087	1.375417883781	-0.075129455609	0.879622383218	1.197085087491	-0.073295361083	0.624031994732	1.325860869889	-0.084706920486	0.755226563541	1.186431004118	-0.413184272548	0.903277350865	0.987127848216	-0.451240777921	0.672860479039	1.181658555725	0.256995127921	0.736922594347	0.981687890119	0.383946914521	0.630527010360	0.992908581503	-0.028525186219	0.635323040711	0.990599130374	-0.103722382235	
100	0.659142857143	0.697197945160	0.100435842849	0.070409724888	0.871547115179	0.126726471368	0.086410681629	0.770923729490	0.078838470189	0.127324297179	0.980799876696	0.066627316978	0.096976065148	0.653624615222	0.042645822486	-0.090827158721	0.818274710495	0.096227009115	-0.136337640506	0.721100490932	0.032714262949	-0.161250641090	0.932173753533	0.056879266592	-0.163516349297	0.901277293799	0.386232443650	0.089500026965	0.859172805306	0.272205895505	0.091560361935	0.809410094510	0.344456219510	0.146493255955	0.762200151775	0.415613319581	0.086076813361	0.767576145390	0.364958211417	-0.160641632362	0.762393918004	0.237257646378	-0.144297480634	0.630073752223	0.339641940929	-0.145649262336	0.697748894950	0.276511372710	-0.198679842455	0.954092096254	0.506555582792	0.072051253087	0.792991892538	0.466452388154	-0.158406249619	0.861687231028	0.824279975011	0.086247700419	0.813386071588	0.730860662334	0.136251397610	0.922741223936	0.679606539714	0.059535352827	0.844008903826	0.775586848403	-0.180092091570	0.828955957267	0.611087714261	-0.167324864505	0.745356708678	0.704076404142	-0.233570668562	0.834040793133	0.935838095758	-0.171129396978	0.804539749634	0.955378957335	0.067225801877	0.631665874073	0.991038195210	-0.065862243623	0.762276426505	1.451489005242	0.081654340035	0.778482693445	1.463832190918	-0.231310870796	0.714126785380	1.480182375757	-0.076912736232	0.829903882674	1.375428522617	-0.075117109215	0.879681390496	1.197096702011	-0.073319623182	0.624063204798	1.325820614895	-0.084632609359	0.755163684548	1.186389191329	-0.413122521656	0.903262557103	0.987128367555	-0.451231926060	0.672882655074	1.181672265450	0.257014131152	0.736926690271	0.981688426860	0.383950102149	0.630678711648	0.992896289396	-0.028437376566	0.635435694555	0.990589878061	-0.103639063964	
